PathFileType	4	(x/y/z)	S10_P20_T22
DataRate	CameraRate	NumFrames	NumMarkers	Units	OrigDataRate	OrigDataStartFrame	OrigNumFrames
240	240	7	51	mm	240	254	405
Frame#	Time	Sternum			R.Acromium			L.Acromium			Top.Head			R.ASIS			L.ASIS			R.PSIS			L.PSIS			R.Great.Tro			L.Great.Tro			R.Iliac.Crest			L.Iliac.Crest			V.Sacral			R.Thigh.Upper.Post			R.Thigh.Lower.Ant			R.Thigh.Lower.Post			R.Thigh.Upper.Ant			R.Knee.Lat			R.Knee.Med			R.Shank.Upper.Post			R.Shank.Lower.Ant			R.Shank.Lower.Post			R.Shank.Upper.Ant			R.Ankle.Lat			R.Ankle.Med			R.Heel.Upper			R.Heel.Med			R.Heel.Lat			R.Toe.Lat			R.Toe.Med			R.Toe.Tip			L.Thigh.Upper.Post			L.Thigh.Lower.Ant			L.Thigh.Lower.Post			L.Thigh.Upper.Ant			L.Knee.Lat			L.Knee.Med			L.Shank.Upper.Post			L.Shank.Lower.Ant			L.Shank.Lower.Post			L.Shank.Upper.Ant			L.Ankle.Lat			L.Ankle.Med			L.Heel.Upper			L.Heel.Med			L.Heel.Lat			L.Toe.Lat			L.Toe.Med			L.Toe.Tip			Cervical.Spine			Back			
		X1	Y1	Z1	X2	Y2	Z2	X3	Y3	Z3	X4	Y4	Z4	X5	Y5	Z5	X6	Y6	Z6	X7	Y7	Z7	X8	Y8	Z8	X9	Y9	Z9	X10	Y10	Z10	X11	Y11	Z11	X12	Y12	Z12	X13	Y13	Z13	X14	Y14	Z14	X15	Y15	Z15	X16	Y16	Z16	X17	Y17	Z17	X18	Y18	Z18	X19	Y19	Z19	X20	Y20	Z20	X21	Y21	Z21	X22	Y22	Z22	X23	Y23	Z23	X24	Y24	Z24	X25	Y25	Z25	X26	Y26	Z26	X27	Y27	Z27	X28	Y28	Z28	X29	Y29	Z29	X30	Y30	Z30	X31	Y31	Z31	X32	Y32	Z32	X33	Y33	Z33	X34	Y34	Z34	X35	Y35	Z35	X36	Y36	Z36	X37	Y37	Z37	X38	Y38	Z38	X39	Y39	Z39	X40	Y40	Z40	X41	Y41	Z41	X42	Y42	Z42	X43	Y43	Z43	X44	Y44	Z44	X45	Y45	Z45	X46	Y46	Z46	X47	Y47	Z47	X48	Y48	Z48	X49	Y49	Z49	X50	Y50	Z50	X51	Y51	Z51	

254	1.0542	13.744	1264.5	313.46	-87.552	1426	477.08	-131	1447.3	180.15	-138.12	1739.1	351.02	-34.415	985.31	436.12	-46.697	1016	206.55	-239.61	1019.5	359	-239.17	1028.7	278.09	-116.42	910.35	510.73	-105.18	956.5	147.81	-121.69	1069.4	487.31	-115.92	1088.7	182.77	-262.06	990.39	322.08	-153.81	702.83	497.38	-115.62	615.24	458.48	-179.92	617.95	484.64	-86.841	701.5	467.69	-222.2	497.87	447.37	-227.19	506.47	319.02	-399.89	344.02	448.3	-379.41	254.94	428.91	-438.98	281.49	441.73	-332.67	316.57	436.96	-483.07	179.27	416.19	-471.22	186.57	338.86	-561.89	168.35	368.15	-569.6	144.62	338.56	-573.5	143.79	400.19	-438.91	42.178	439.39	-411.55	42.914	329.75	-355.81	43.295	368.42	-70.113	673.45	159.14	18.888	615.44	189.31	-46.325	583.86	185.12	3.0843	701.74	163.55	13.297	514.41	198.52	15.801	518.6	328.06	-4.4378	292.02	202.34	79.495	221.75	221.35	15.784	217.26	213.42	59.991	295.54	210.47	71.303	105.97	228.78	81.449	119.43	314.56	13.416	71.208	276.06	27.923	40.472	309.75	23.351	42.136	245.11	198.39	56.021	211.28	221.24	72.726	316.69	272.14	93.942	270.12	-184.28	1483.3	349.39	-270.46	1275.2	352.6
255	1.0583	19.575	1264.3	312.9	-82.306	1425.6	476.58	-125.34	1447	179.52	-132.59	1738.8	350.88	-28.605	985.15	435.66	-40.735	1015.8	206.11	-233.8	1019	358.66	-233.26	1028.2	277.73	-110.34	909.85	510.27	-99.058	956.28	147.41	-115.98	1069.1	486.81	-109.99	1088.4	182.31	-256.14	989.84	321.67	-146.58	702	497.36	-107.56	614.59	458.9	-171.95	616.92	484.91	-79.519	701.11	467.79	-213.42	496.51	447.96	-217.92	504.62	319.66	-392.91	345.07	448.58	-373.65	255.68	429.53	-432.95	283.14	442.22	-326.11	316.73	437.61	-478.27	181.67	416.82	-466.17	188.63	339.39	-556.54	172.87	368.51	-565.11	149.49	338.85	-568.94	148.64	400.48	-437.92	42.957	439.46	-410.87	43.329	329.84	-355.47	43.024	368.33	-63.721	673.38	159.08	25.177	615.4	189.64	-40.024	583.84	185.16	9.4372	701.73	163.9	19.564	514.34	198.87	21.459	518.58	328.38	-0.10259	292.15	202.36	82.948	220.97	221.84	19.255	217.2	213.42	64.298	294.99	210.92	72.825	105.59	228.86	83.183	118.65	314.8	14.291	71.743	276.24	28.267	40.667	309.79	23.671	42.575	245.14	199.07	53.87	211.28	222.32	69.856	316.73	273.63	90.266	270.11	-178.82	1483	348.69	-264.83	1274.8	351.74
256	1.0625	25.398	1264.2	312.36	-77.071	1425.2	476.08	-119.66	1446.7	178.9	-127.07	1738.6	350.74	-22.851	985.02	435.22	-34.784	1015.6	205.69	-228.02	1018.5	358.3	-227.38	1027.8	277.35	-104.3	909.37	509.8	-92.93	956.13	147	-110.35	1068.9	486.32	-104.05	1088.1	181.86	-250.25	989.35	321.23	-139.24	701.17	497.36	-99.343	613.98	459.37	-163.83	615.88	485.23	-72.098	700.77	467.91	-204.43	495.13	448.61	-208.36	502.71	320.35	-385.67	346.15	448.85	-367.64	256.46	430.18	-426.65	284.82	442.69	-319.3	316.91	438.28	-473.18	184.14	417.48	-460.84	190.76	339.9	-550.81	177.56	368.89	-560.24	154.57	339.17	-564	153.71	400.8	-436.82	43.872	439.53	-410.09	43.852	329.93	-355.08	42.716	368.22	-57.366	673.36	158.99	31.424	615.39	189.93	-33.769	583.86	185.15	15.753	701.77	164.22	25.776	514.3	199.2	27.044	518.59	328.68	4.1617	292.32	202.36	86.303	220.22	222.31	22.63	217.19	213.42	68.525	294.48	211.33	74.247	105.27	228.94	84.815	117.95	315.02	15.083	72.24	276.39	28.574	40.866	309.81	23.955	42.994	245.17	199.69	51.911	211.25	223.31	67.178	316.75	275	86.823	270.09	-173.36	1482.7	348	-259.2	1274.5	350.87
257	1.0667	31.209	1264.1	311.83	-71.85	1424.9	475.59	-113.97	1446.5	178.28	-121.55	1738.4	350.6	-17.159	984.93	434.81	-28.849	1015.5	205.31	-222.28	1018.1	357.92	-221.51	1027.4	276.95	-98.31	908.91	509.32	-86.8	956.07	146.6	-104.81	1068.8	485.83	-98.115	1087.9	181.43	-244.39	988.9	320.77	-131.8	700.35	497.41	-90.988	613.39	459.88	-155.57	614.85	485.61	-64.586	700.47	468.06	-195.23	493.74	449.3	-198.51	500.74	321.08	-378.16	347.24	449.13	-361.36	257.28	430.86	-420.07	286.53	443.15	-312.25	317.11	438.97	-467.79	186.69	418.17	-455.23	192.95	340.41	-544.67	182.41	369.32	-554.98	159.84	339.53	-558.65	158.99	401.17	-435.6	44.933	439.59	-409.22	44.495	330.01	-354.62	42.368	368.13	-51.05	673.39	158.86	37.629	615.43	190.16	-27.558	583.93	185.1	22.03	701.84	164.49	31.927	514.29	199.51	32.564	518.64	328.98	8.3424	292.54	202.32	89.55	219.53	222.77	25.9	217.23	213.42	72.658	294	211.72	75.571	105.01	229.01	86.339	117.34	315.22	15.793	72.695	276.52	28.848	41.062	309.83	24.208	43.389	245.19	200.23	50.154	211.2	224.21	64.704	316.79	276.25	83.633	270.07	-167.91	1482.5	347.3	-253.6	1274.2	349.99
258	1.0708	37.005	1264.1	311.32	-66.644	1424.6	475.1	-108.27	1446.3	177.68	-116.03	1738.3	350.46	-11.532	984.86	434.44	-22.93	1015.4	204.96	-216.58	1017.8	357.52	-215.68	1027.2	276.54	-92.375	908.47	508.83	-80.673	956.08	146.19	-99.374	1068.7	485.35	-92.184	1087.7	181.02	-238.57	988.51	320.27	-124.26	699.55	497.49	-82.499	612.84	460.43	-147.16	613.81	486.03	-56.989	700.21	468.23	-185.83	492.35	450.03	-188.38	498.72	321.84	-370.39	348.35	449.41	-354.83	258.14	431.56	-413.22	288.28	443.61	-304.95	317.33	439.68	-462.1	189.31	418.89	-449.34	195.22	340.92	-538.13	187.42	369.8	-549.33	165.3	339.94	-552.89	164.47	401.59	-434.24	46.151	439.66	-408.24	45.27	330.1	-354.1	41.977	368.03	-44.775	673.45	158.69	43.789	615.5	190.36	-21.394	584.03	185	28.268	701.95	164.72	38.013	514.3	199.8	38.024	518.73	329.26	12.427	292.79	202.26	92.68	218.88	223.22	29.056	217.32	213.41	76.687	293.55	212.07	76.796	104.79	229.09	87.751	116.82	315.41	16.425	73.105	276.64	29.092	41.252	309.85	24.432	43.755	245.21	200.71	48.604	211.14	225.02	62.439	316.83	277.37	80.708	270.05	-162.46	1482.3	346.6	-248.01	1274	349.11
259	1.075	42.783	1264.1	310.85	-61.457	1424.4	474.62	-102.55	1446.1	177.1	-110.52	1738.1	350.32	-5.9735	984.82	434.1	-17.031	1015.4	204.64	-210.93	1017.5	357.09	-209.88	1026.9	276.1	-86.501	908.06	508.33	-74.555	956.18	145.8	-94.035	1068.6	484.88	-86.262	1087.6	180.64	-232.78	988.17	319.73	-116.62	698.76	497.6	-73.887	612.35	461.02	-138.62	612.8	486.51	-49.316	700.01	468.43	-176.25	490.96	450.8	-177.98	496.67	322.64	-362.36	349.49	449.71	-348.04	259.05	432.28	-406.1	290.06	444.06	-297.4	317.58	440.41	-456.1	191.99	419.64	-443.18	197.54	341.41	-531.18	192.56	370.33	-543.27	170.94	340.39	-546.72	170.13	402.07	-432.74	47.537	439.73	-407.11	46.188	330.2	-353.49	41.543	367.95	-38.545	673.56	158.48	49.899	615.61	190.52	-15.281	584.17	184.87	34.462	702.1	164.91	44.023	514.33	200.07	43.428	518.86	329.54	16.404	293.08	202.17	95.684	218.27	223.67	32.09	217.45	213.41	80.598	293.13	212.41	77.926	104.63	229.16	89.05	116.38	315.6	16.982	73.469	276.74	29.307	41.431	309.86	24.63	44.091	245.23	201.14	47.258	211.06	225.73	60.386	316.88	278.38	78.056	270.04	-157.02	1482.1	345.91	-242.44	1273.8	348.23
260	1.0792	48.541	1264.1	310.4	-56.288	1424.2	474.15	-96.817	1446	176.53	-105.01	1738	350.18	-0.48613	984.8	433.8	-11.152	1015.4	204.35	-205.32	1017.2	356.64	-204.1	1026.8	275.65	-80.694	907.66	507.82	-68.452	956.35	145.4	-88.798	1068.5	484.42	-80.352	1087.6	180.28	-227.03	987.89	319.17	-108.9	698	497.76	-65.166	611.9	461.65	-129.96	611.8	487.04	-41.577	699.86	468.66	-166.51	489.59	451.59	-167.32	494.6	323.45	-354.09	350.65	450.01	-341.01	260	433.02	-398.72	291.87	444.5	-289.62	317.85	441.14	-449.8	194.73	420.41	-436.74	199.94	341.89	-523.83	197.83	370.92	-536.81	176.73	340.91	-540.13	175.94	402.61	-431.07	49.096	439.81	-405.83	47.257	330.31	-352.8	41.064	367.89	-32.364	673.7	158.24	55.951	615.74	190.65	-9.2247	584.33	184.72	40.606	702.28	165.06	49.946	514.38	200.34	48.779	519.02	329.8	20.262	293.4	202.08	98.556	217.71	224.1	34.998	217.62	213.41	84.382	292.74	212.72	78.964	104.52	229.25	90.237	116.02	315.78	17.469	73.788	276.82	29.497	41.597	309.87	24.803	44.394	245.24	201.51	46.109	210.98	226.36	58.542	316.95	279.27	75.673	270.04	-151.59	1482	345.22	-236.9	1273.7	347.36
